<mxfile host="app.diagrams.net" modified="2020-11-14T21:15:01.543Z" agent="5.0 (Macintosh; Intel Mac OS X 10_15_7) AppleWebKit/537.36 (KHTML, like Gecko) Chrome/86.0.4240.111 Safari/537.36" etag="DWjIwpcPE7AeLm5g7VRb" version="13.9.6" type="github">
  <diagram id="C5RBs43oDa-KdzZeNtuy" name="Page-1">
    <mxGraphModel dx="643" dy="930" grid="1" gridSize="10" guides="1" tooltips="1" connect="1" arrows="1" fold="1" page="1" pageScale="1" pageWidth="827" pageHeight="1169" math="0" shadow="0">
      <root>
        <mxCell id="WIyWlLk6GJQsqaUBKTNV-0" />
        <mxCell id="WIyWlLk6GJQsqaUBKTNV-1" parent="WIyWlLk6GJQsqaUBKTNV-0" />
        <mxCell id="s_MwcGzySPGAvET0R7tc-2" value="" style="edgeStyle=orthogonalEdgeStyle;rounded=0;orthogonalLoop=1;jettySize=auto;html=1;" edge="1" parent="WIyWlLk6GJQsqaUBKTNV-1" source="WIyWlLk6GJQsqaUBKTNV-3" target="s_MwcGzySPGAvET0R7tc-1">
          <mxGeometry relative="1" as="geometry" />
        </mxCell>
        <mxCell id="WIyWlLk6GJQsqaUBKTNV-3" value="// variable declarations&lt;br&gt;double int numbers []&lt;br&gt;int variance []&lt;br&gt;int deviation []&lt;br&gt;int count = 0" style="rectangle;whiteSpace=wrap;html=1;fontSize=12;glass=0;strokeWidth=1;shadow=0;" parent="WIyWlLk6GJQsqaUBKTNV-1" vertex="1">
          <mxGeometry x="160" y="80" width="130" height="120" as="geometry" />
        </mxCell>
        <mxCell id="s_MwcGzySPGAvET0R7tc-4" value="" style="edgeStyle=orthogonalEdgeStyle;rounded=0;orthogonalLoop=1;jettySize=auto;html=1;" edge="1" parent="WIyWlLk6GJQsqaUBKTNV-1" source="s_MwcGzySPGAvET0R7tc-1" target="s_MwcGzySPGAvET0R7tc-3">
          <mxGeometry relative="1" as="geometry" />
        </mxCell>
        <mxCell id="s_MwcGzySPGAvET0R7tc-1" value="output&amp;nbsp;&lt;br&gt;&quot;Please enter an integer&quot;" style="shape=parallelogram;perimeter=parallelogramPerimeter;whiteSpace=wrap;html=1;fixedSize=1;shadow=0;strokeWidth=1;glass=0;" vertex="1" parent="WIyWlLk6GJQsqaUBKTNV-1">
          <mxGeometry x="165" y="310" width="120" height="60" as="geometry" />
        </mxCell>
        <mxCell id="s_MwcGzySPGAvET0R7tc-6" value="" style="edgeStyle=orthogonalEdgeStyle;rounded=0;orthogonalLoop=1;jettySize=auto;html=1;" edge="1" parent="WIyWlLk6GJQsqaUBKTNV-1" source="s_MwcGzySPGAvET0R7tc-3" target="s_MwcGzySPGAvET0R7tc-5">
          <mxGeometry relative="1" as="geometry" />
        </mxCell>
        <mxCell id="s_MwcGzySPGAvET0R7tc-3" value="input item" style="shape=parallelogram;perimeter=parallelogramPerimeter;whiteSpace=wrap;html=1;fixedSize=1;shadow=0;strokeWidth=1;glass=0;" vertex="1" parent="WIyWlLk6GJQsqaUBKTNV-1">
          <mxGeometry x="165" y="450" width="120" height="60" as="geometry" />
        </mxCell>
        <mxCell id="s_MwcGzySPGAvET0R7tc-14" value="" style="edgeStyle=orthogonalEdgeStyle;rounded=0;orthogonalLoop=1;jettySize=auto;html=1;" edge="1" parent="WIyWlLk6GJQsqaUBKTNV-1" source="s_MwcGzySPGAvET0R7tc-5">
          <mxGeometry relative="1" as="geometry">
            <mxPoint x="225.00000000000023" y="830" as="targetPoint" />
          </mxGeometry>
        </mxCell>
        <mxCell id="s_MwcGzySPGAvET0R7tc-5" value="numbers[count] = input&lt;br&gt;count++" style="rhombus;whiteSpace=wrap;html=1;shadow=0;strokeWidth=1;glass=0;" vertex="1" parent="WIyWlLk6GJQsqaUBKTNV-1">
          <mxGeometry x="116.25" y="584.5" width="217.5" height="170" as="geometry" />
        </mxCell>
        <mxCell id="s_MwcGzySPGAvET0R7tc-11" value="" style="edgeStyle=orthogonalEdgeStyle;rounded=0;orthogonalLoop=1;jettySize=auto;html=1;" edge="1" parent="WIyWlLk6GJQsqaUBKTNV-1" source="s_MwcGzySPGAvET0R7tc-7">
          <mxGeometry relative="1" as="geometry">
            <mxPoint x="240" y="250" as="targetPoint" />
            <Array as="points">
              <mxPoint x="460" y="950" />
              <mxPoint x="460" y="250" />
            </Array>
          </mxGeometry>
        </mxCell>
        <mxCell id="s_MwcGzySPGAvET0R7tc-7" value="is count &amp;lt; 15 ?" style="rhombus;whiteSpace=wrap;html=1;shadow=0;strokeWidth=1;glass=0;" vertex="1" parent="WIyWlLk6GJQsqaUBKTNV-1">
          <mxGeometry x="87.5" y="830" width="275" height="240" as="geometry" />
        </mxCell>
        <mxCell id="s_MwcGzySPGAvET0R7tc-9" value="yes" style="text;html=1;strokeColor=none;fillColor=none;align=center;verticalAlign=middle;whiteSpace=wrap;rounded=0;" vertex="1" parent="WIyWlLk6GJQsqaUBKTNV-1">
          <mxGeometry x="362.5" y="920" width="40" height="20" as="geometry" />
        </mxCell>
        <mxCell id="s_MwcGzySPGAvET0R7tc-23" value="" style="edgeStyle=orthogonalEdgeStyle;rounded=0;orthogonalLoop=1;jettySize=auto;html=1;" edge="1" parent="WIyWlLk6GJQsqaUBKTNV-1" target="s_MwcGzySPGAvET0R7tc-22">
          <mxGeometry relative="1" as="geometry">
            <mxPoint x="225" y="1070" as="sourcePoint" />
          </mxGeometry>
        </mxCell>
        <mxCell id="s_MwcGzySPGAvET0R7tc-15" value="no" style="text;html=1;strokeColor=none;fillColor=none;align=center;verticalAlign=middle;whiteSpace=wrap;rounded=0;" vertex="1" parent="WIyWlLk6GJQsqaUBKTNV-1">
          <mxGeometry x="180" y="1070" width="40" height="20" as="geometry" />
        </mxCell>
        <mxCell id="s_MwcGzySPGAvET0R7tc-25" value="" style="edgeStyle=orthogonalEdgeStyle;rounded=0;orthogonalLoop=1;jettySize=auto;html=1;" edge="1" parent="WIyWlLk6GJQsqaUBKTNV-1" source="s_MwcGzySPGAvET0R7tc-22" target="s_MwcGzySPGAvET0R7tc-24">
          <mxGeometry relative="1" as="geometry" />
        </mxCell>
        <mxCell id="s_MwcGzySPGAvET0R7tc-22" value="sum += numbers [] / 15 = mean" style="rectangle;whiteSpace=wrap;html=1;shadow=0;strokeWidth=1;glass=0;" vertex="1" parent="WIyWlLk6GJQsqaUBKTNV-1">
          <mxGeometry x="106.25" y="1150" width="237.5" height="120" as="geometry" />
        </mxCell>
        <mxCell id="s_MwcGzySPGAvET0R7tc-27" value="" style="edgeStyle=orthogonalEdgeStyle;rounded=0;orthogonalLoop=1;jettySize=auto;html=1;" edge="1" parent="WIyWlLk6GJQsqaUBKTNV-1" source="s_MwcGzySPGAvET0R7tc-24" target="s_MwcGzySPGAvET0R7tc-26">
          <mxGeometry relative="1" as="geometry" />
        </mxCell>
        <mxCell id="s_MwcGzySPGAvET0R7tc-24" value="index = 0" style="rectangle;whiteSpace=wrap;html=1;shadow=0;strokeWidth=1;glass=0;" vertex="1" parent="WIyWlLk6GJQsqaUBKTNV-1">
          <mxGeometry x="106.25" y="1350" width="237.5" height="120" as="geometry" />
        </mxCell>
        <mxCell id="s_MwcGzySPGAvET0R7tc-29" value="" style="edgeStyle=orthogonalEdgeStyle;rounded=0;orthogonalLoop=1;jettySize=auto;html=1;" edge="1" parent="WIyWlLk6GJQsqaUBKTNV-1" source="s_MwcGzySPGAvET0R7tc-26" target="s_MwcGzySPGAvET0R7tc-28">
          <mxGeometry relative="1" as="geometry" />
        </mxCell>
        <mxCell id="s_MwcGzySPGAvET0R7tc-26" value="variance [index] = numbers [index] - mean&lt;br&gt;index ++" style="rectangle;whiteSpace=wrap;html=1;shadow=0;strokeWidth=1;glass=0;" vertex="1" parent="WIyWlLk6GJQsqaUBKTNV-1">
          <mxGeometry x="106.25" y="1550" width="237.5" height="120" as="geometry" />
        </mxCell>
        <mxCell id="s_MwcGzySPGAvET0R7tc-39" value="" style="edgeStyle=orthogonalEdgeStyle;rounded=0;orthogonalLoop=1;jettySize=auto;html=1;" edge="1" parent="WIyWlLk6GJQsqaUBKTNV-1" source="s_MwcGzySPGAvET0R7tc-28" target="s_MwcGzySPGAvET0R7tc-38">
          <mxGeometry relative="1" as="geometry" />
        </mxCell>
        <mxCell id="s_MwcGzySPGAvET0R7tc-28" value="is index &amp;lt; 15 ?" style="rhombus;whiteSpace=wrap;html=1;shadow=0;strokeWidth=1;glass=0;" vertex="1" parent="WIyWlLk6GJQsqaUBKTNV-1">
          <mxGeometry x="122.5" y="1770" width="205" height="150" as="geometry" />
        </mxCell>
        <mxCell id="s_MwcGzySPGAvET0R7tc-30" value="" style="endArrow=none;html=1;exitX=1;exitY=0.5;exitDx=0;exitDy=0;" edge="1" parent="WIyWlLk6GJQsqaUBKTNV-1" source="s_MwcGzySPGAvET0R7tc-28">
          <mxGeometry width="50" height="50" relative="1" as="geometry">
            <mxPoint x="370" y="1680" as="sourcePoint" />
            <mxPoint x="440" y="1520" as="targetPoint" />
            <Array as="points">
              <mxPoint x="440" y="1845" />
            </Array>
          </mxGeometry>
        </mxCell>
        <mxCell id="s_MwcGzySPGAvET0R7tc-31" value="" style="endArrow=classic;html=1;" edge="1" parent="WIyWlLk6GJQsqaUBKTNV-1">
          <mxGeometry width="50" height="50" relative="1" as="geometry">
            <mxPoint x="440" y="1520" as="sourcePoint" />
            <mxPoint x="240" y="1520" as="targetPoint" />
          </mxGeometry>
        </mxCell>
        <mxCell id="s_MwcGzySPGAvET0R7tc-32" value="yes" style="text;html=1;strokeColor=none;fillColor=none;align=center;verticalAlign=middle;whiteSpace=wrap;rounded=0;" vertex="1" parent="WIyWlLk6GJQsqaUBKTNV-1">
          <mxGeometry x="333.75" y="1810" width="40" height="20" as="geometry" />
        </mxCell>
        <mxCell id="s_MwcGzySPGAvET0R7tc-38" value="is index &amp;lt; 15 ?" style="rhombus;whiteSpace=wrap;html=1;shadow=0;strokeWidth=1;glass=0;" vertex="1" parent="WIyWlLk6GJQsqaUBKTNV-1">
          <mxGeometry x="122.5" y="2000" width="205" height="150" as="geometry" />
        </mxCell>
      </root>
    </mxGraphModel>
  </diagram>
</mxfile>
